<?xml version="1.0" encoding="UTF-8"?>
<svg xmlns="http://www.w3.org/2000/svg" viewBox="0 0 5046 2300">
  <g id="Layer_2" data-name="Layer 2">
    <polygon id="sariyer" class="neighborhood" data-name="Sarıyer" points="2561.99 471.95 2579.25 560.82 2503.32 625.54 2504.18 641.07 2480.88 655.74 2482.61 685.08 2454.13 699.75 2454.13 720.46 2362.67 782.58 2412.71 820.55 2456.72 849.89 2541.28 885.27 2542.15 916.33 2471.39 952.57 2506.77 984.5 2473.12 1034.54 2504.18 1061.29 2471.39 1085.45 2434.95 1076.45 2400.36 1099.72 2266.89 1049.21 2313.48 1004.34 2281.56 886.13 2270.34 883.54 2058.69 919.14 2034.76 874.77 1978.93 870.28 1984.91 785.03 1920.6 760.6 1915.61 749.13 1944.03 664.88 1870.24 607.05 1866.25 591.09 1949.51 455.99 2054.62 477.99 2177.15 481.44 2233.23 417.58 2461.04 445.2 2561.99 471.95" fill="none"/>
  </g>
  <g id="Layer_3" data-name="Layer 3">
    <polygon id="sultangazi" class="neighborhood" data-name="Sultangazi" points="1791.89 1108.49 1797.09 1245.59 1771.69 1241.83 1701.67 1254.01 1620.23 1293.58 1615.01 1293.42 1599.64 1302.84 1502.1 1249.72 1502.65 1225.9 1391.25 1144.31 1495.72 1024.03 1510.75 1021.72 1730.28 1085.06 1788.22 1096.88 1791.89 1108.49" fill="none"/>
  </g>
  <g id="Layer_4" data-name="Layer 4">
    <polygon id="beykoz" class="neighborhood" data-name="Beykoz" points="2553.65 745.72 2594.92 713.18 2589.37 683.01 2710.81 630.62 2710.02 580.62 2745.74 565.54 2737.8 535.37 2840.99 484.57 3094.99 464.73 3133.09 418.69 3466.47 449.65 3514.1 440.92 3564.9 447.27 3552.2 557.6 3741.91 756.04 3726.83 761.6 3404.56 792.55 3286.29 917.17 3191.04 923.52 3168.81 963.21 3150.56 1135.46 2979.1 1176.73 2947.35 1228.33 2933.86 1239.44 2889.41 1237.85 2847.34 1175.15 2806.06 1183.88 2751.29 1152.92 2709.06 1157.21 2654.31 1110.95 2612.77 1110.95 2593.34 1085.45 2607.62 1055.29 2583.81 1012.42 2713.99 896.54 2686.21 845.73 2571.11 825.89 2586.19 778.26 2553.65 745.72" fill="none"/>
  </g>
  <g id="Layer_5" data-name="Layer 5">
    <polygon id="gop" class="neighborhood" data-name="Gaziosmanpaşa" points="1793.76 1241.83 1771.69 1241.83 1701.67 1254.01 1620.23 1293.58 1657.17 1340.04 1732.11 1369.69 1780.82 1392.52 1812.02 1416.12 1890.18 1389.77 1894.98 1343.81 1892.7 1300.43 1888.17 1289.43 1799.52 1300.73 1793.76 1241.83" fill="none"/>
  </g>
  <g id="Layer_6" data-name="Layer 6">
    <polygon id="maltepe" class="neighborhood" data-name="Maltepe" points="2745.47 1728.35 2705.63 1700.46 2825.7 1625.92 2874.07 1563.32 2952.03 1555.92 2981.05 1513.81 3056.74 1513.81 3162.58 1474.55 3217.21 1569.58 3180.22 1705.58 3000.4 1803.46 2946.34 1759.64 2904.23 1763.63 2876.92 1741.43 2840.5 1748.26 2800.1 1718.67 2745.47 1728.35" fill="none"/>
  </g>
  <g id="Layer_8" data-name="Layer 8">
    <polygon id="sisli-2" class="neighborhood" data-neighborhood="sisli" data-name="Şişli" points="2172.76 1341.22 2178.51 1343.69 2220.5 1234.93 2269.55 1216.69 2275.84 1160.72 2225.09 1139.48 2188.66 1156.8 2167.77 1211.13 2081.19 1236.21 2052.53 1282.19 2172.76 1341.22" fill="none" stroke="#000" stroke-miterlimit="10"/>
    <polygon id="sisli" class="neighborhood" data-neighborhood="sisli" data-name="Şişli" points="2229.82 1088.81 2217.92 1097.09 2125.5 1095.98 2083.3 1089.61 2008.34 1107.24 1989.4 1022.34 2058.69 919.14 2275.22 884.95 2283.98 889.73 2313.48 1004.34 2229.82 1088.81" fill="none" stroke="#000" stroke-miterlimit="10"/>
  </g>
  <g id="Layer_9" data-name="Layer 9">
    <polygon id="kadikoy" class="neighborhood" data-name="Kadıköy" points="2444.44 1521.78 2462.65 1486.5 2537.19 1401.14 2553.13 1401.14 2652.14 1453.49 2834.24 1608.84 2823.43 1629.9 2705.63 1700.46 2693.11 1695.91 2624.26 1724.36 2583.86 1710.14 2603.2 1667.46 2578.74 1646.4 2520.69 1657.78 2472.32 1614.54 2518.42 1588.36 2516.71 1559.91 2444.44 1521.78" fill="none"/>
  </g>
  <g id="Layer_10" data-name="Layer 10">
    <polygon id="uskudar" class="neighborhood" data-name="Üsküdar" points="2407.93 1447.02 2588.23 1248.78 2567.46 1198.75 2592.95 1170.43 2582.57 1137.39 2612.77 1110.95 2654.31 1110.95 2709.06 1157.21 2706.23 1187.42 2713.78 1236.51 2687.35 1292.2 2710.76 1360.74 2699.94 1379.52 2673.2 1389.19 2663.52 1428.46 2647.59 1453.49 2549.71 1402.28 2537.19 1401.14 2462.08 1489.34 2407.93 1447.02" fill="none"/>
  </g>
  <g id="Layer_11" data-name="Layer 11">
    <polygon id="besiktas" class="neighborhood" data-name="Beşiktaş" points="2429.29 1277.69 2258.86 1390.89 2178.51 1343.69 2220.5 1234.93 2269.55 1216.69 2275.84 1160.72 2225.09 1139.48 2217.92 1097.09 2271.44 1049.41 2400.36 1099.72 2434.95 1076.45 2467.03 1085.88 2475.2 1112.3 2442.5 1151.29 2467.65 1175.19 2426.15 1218.58 2429.29 1277.69" fill="none"/>
  </g>
  <g id="Layer_12" data-name="Layer 12">
    <polygon id="fatih" class="neighborhood" data-name="Fatih" points="2282.76 1548.41 2050.31 1619.15 1981.25 1619.99 1926.5 1690.74 1840.6 1707.58 1836.88 1551.2 1978.43 1414.2 1983.77 1408.6 2075.57 1447.34 2125.26 1481.03 2174.11 1486.08 2272.65 1472.61 2282.76 1548.41" fill="none"/>
  </g>
  <g id="Layer_13" data-name="Layer 13">
    <polygon id="kartal" class="map-unaccommodated" data-name="Kartal" points="3247.42 2015.56 3389.53 1763.49 3378.49 1708.3 3413.3 1660.75 3353.02 1518.95 3213.77 1568.2 3180.22 1705.58 3000.4 1803.46 3247.42 2015.56" fill="none"/>
  </g>
  <g id="Layer_35" data-name="Layer 35">
    <polygon id="sancaktepe" class="map-unaccommodated" data-name="Sancaktepe" points="3667.27 1211.31 3690.8 1111.55 3673.06 1104.05 3429.51 1131.11 3388.83 1227.27 3108.24 1331.77 3092.24 1341.18 3217.21 1569.58 3353.02 1518.95 3374.88 1336.22 3466.81 1298.53 3491.64 1303.12 3527.98 1232.95 3667.27 1211.31" fill="none"/>
  </g>
  <g id="Layer_36" data-name="Layer 36">
    <polygon id="sultanbeyli" class="map-unaccommodated" data-name="Sultanbeyli" points="3607.48 1598.24 3634.14 1534.8 3601.96 1462.17 3548.64 1464.93 3525.65 1451.14 3491.64 1303.12 3466.81 1298.53 3374.88 1336.22 3353.02 1518.95 3413.3 1660.75 3607.48 1598.24" fill="none"/>
  </g>
  <g id="Layer_33" data-name="Layer 33">
    <polygon id="cekmekoy" class="neighborhood" data-name="Çekmeköy" points="3853.46 874.93 3823.7 1138.32 3772.28 1167.19 3752.44 1167.19 3726.28 1120.28 3691.1 1119.38 3687.49 1106.75 3673.06 1104.05 3429.51 1131.11 3388.83 1227.27 3113.84 1330.77 3107.1 1317.91 2947.35 1228.33 2979.1 1176.73 3150.56 1135.46 3168.81 963.21 3191.04 923.52 3286.29 917.17 3404.56 792.55 3723.23 762.11 3737.93 755.37 3853.46 874.93" fill="none"/>
  </g>
  <g id="Layer_34" data-name="Layer 34">
    <polygon id="pendik" class="map-unaccommodated" data-name="Pendik" points="3537.01 2081.56 3366.94 2010.15 3272.98 2035.52 3249.5 2010.15 3389.53 1763.49 3378.49 1708.3 3413.3 1660.75 3607.48 1598.24 3634.14 1534.8 3598.08 1461.43 3548.64 1464.93 3525.65 1451.14 3491.64 1303.12 3527.98 1232.95 3667.27 1211.31 3691.1 1119.38 3726.28 1120.28 3752.44 1167.19 3772.28 1167.19 3823.7 1138.32 3824.52 1146.67 4053.78 1193.65 4128.01 1269.76 4127.07 1354.32 4046.27 1364.66 3841.44 1572.31 3769.09 1578.88 3662.91 1919.01 3595.26 1956.6 3537.01 2081.56" fill="none"/>
  </g>
  <g id="Layer_29" data-name="Layer 29">
    <polygon id="tuzla" class="map-unaccommodated" data-name="Tuzla" points="3584.68 2071.02 3548.81 2089.6 3540.48 2081.27 3595.26 1956.6 3662.91 1919.01 3769.09 1578.88 3841.44 1572.31 4046.27 1364.66 4127.07 1354.32 4129.23 1743.69 3958.5 1872.81 3951.48 2016.8 3803.68 2120.78 3712.33 2084.39 3663.31 2095.53 3584.68 2071.02" fill="none"/>
  </g>
  <g id="Layer_30" data-name="Layer 30">
    <polygon id="sile" class="map-unaccommodated" data-name="Şile" points="4135.36 439.71 3686.7 406.62 3657.28 434.81 3564.9 447.27 3552.2 557.6 3853.46 874.93 3824.52 1146.67 4053.78 1193.65 4128.01 1269.76 4135.36 439.71" fill="none"/>
  </g>
  <g id="Layer_31" data-name="Layer 31">
    <polygon id="istanbul_disi" class="map-istanbul-disi" data-name="İstanbul Dışı" points="4137.82 1736.89 3958.5 1872.81 3951.48 2016.8 3803.68 2120.78 3846.33 2137.37 3846.33 2148.77 3870.41 2157.64 3907.17 2128.5 4096 2194.4 4094.73 2218.48 4112.48 2229.88 4132.75 2226.08 4137.82 1736.89" fill="none"/>
  </g>
  <g id="Layer_32" data-name="Layer 32">
    <polygon id="kucukcekmece" class="neighborhood" data-name="Küçükçekmece" points="1086.01 1885.98 1113.35 1863.43 1221.33 1824.47 1257.55 1738.36 1272.58 1737 1329.31 1620.14 1326.5 1492.34 1138.64 1525.14 1014.63 1559.92 1014.94 1603.05 993.55 1730.39 1021.66 1755.28 1050.58 1870.94 1086.01 1885.98" fill="none" stroke="#000" stroke-miterlimit="10"/>
  </g>
  <g id="Layer_25" data-name="Layer 25">
    <polygon id="avcilar" class="map-unaccommodated" data-name="Avcılar" points="921.68 1945.03 1050.58 1870.94 1021.66 1755.28 993.55 1730.39 1014.43 1599.46 1014.63 1559.92 917.14 1492.89 921.68 1945.03" fill="none" stroke="#000" stroke-miterlimit="10"/>
  </g>
  <g id="Layer_26" data-name="Layer 26">
    <polygon id="esenler" class="neighborhood" data-name="Esenler" points="1599.64 1302.84 1615.01 1293.42 1623.94 1296.4 1657.17 1340.04 1654.69 1349.96 1659.65 1387.15 1685.44 1422.86 1678 1466.01 1682.46 1473.45 1738.01 1505.19 1746.94 1518.08 1743.34 1574.97 1727.24 1588.77 1721.64 1583.05 1684.45 1578.09 1679.98 1570.66 1676.22 1532.73 1662.17 1530.22 1615.51 1537.43 1608.74 1515.6 1535.66 1477.91 1548.56 1434.77 1553.52 1401.54 1524.85 1397.39 1486.17 1441.52 1472.68 1448.16 1419.61 1422.37 1419.56 1376.01 1477.14 1262.67 1502.1 1249.72 1599.64 1302.84" fill="none" stroke="#000" stroke-miterlimit="10"/>
  </g>
  <g id="Layer_27" data-name="Layer 27">
    <polygon id="bayrampasa" class="neighborhood" data-name="Bayrampaşa" points="1806.58 1499.23 1807.17 1413.63 1787.1 1396.51 1713.89 1362.86 1654.26 1339.83 1659.65 1387.15 1685.44 1422.86 1677.29 1462.63 1682.46 1473.45 1733.96 1503.37 1749.9 1523.44 1801.27 1505.73 1806.58 1499.23" fill="none" stroke="#000" stroke-miterlimit="10"/>
  </g>
  <g id="Layer_28" data-name="Layer 28">
    <polygon id="bagcilar" class="neighborhood" data-name="Bağcılar" points="1524.85 1397.39 1486.17 1441.52 1475.28 1448.6 1425.7 1425.72 1328.71 1457.44 1328.74 1616.93 1519.4 1624.55 1545.55 1630.55 1549.91 1570.62 1618.55 1538.48 1608.74 1515.6 1534.65 1475.83 1551 1428.44 1551 1400.66 1524.85 1397.39" fill="none" stroke="#000" stroke-miterlimit="10"/>
  </g>
  <g id="Layer_14" data-name="Layer 14">
    <polygon id="atasehir" class="neighborhood" data-name="Ataşehir" points="2866.97 1570.93 2834.58 1612.84 2647.59 1453.49 2660.56 1430.01 2765.8 1418.42 2869.18 1430.93 2999.39 1421.36 3126.93 1404.05 3162.58 1474.55 3056.74 1513.81 2981.05 1513.81 2952.03 1555.92 2874.07 1563.32 2866.97 1570.93" fill="none"/>
  </g>
  <g id="Layer_15" data-name="Layer 15">
    <polygon id="umraniye" class="neighborhood" data-name="Ümraniye" points="2675.86 1428.62 2660.56 1430.01 2673.2 1389.19 2699.94 1379.52 2710.76 1360.74 2687.35 1292.2 2713.78 1236.51 2705.07 1190.79 2709.06 1157.21 2753.28 1153.71 2806.06 1183.88 2847.34 1175.15 2889.41 1237.85 2933.86 1239.44 2947.35 1228.33 3107.1 1317.91 3110.71 1330.8 3092.24 1341.18 3126.93 1404.05 2985.07 1423.05 2869.18 1430.93 2816.33 1424.91 2765.8 1418.42 2675.86 1428.62" fill="none"/>
  </g>
  <g id="Layer_16" data-name="Layer 16">
    <path id="arnavutkoy" class="map-unaccommodated" data-name="Arnavutköy" d="M1129.94,275.77c2.24,2.82,4.47,5.65,6.66,8.51,9.31,12.15,17.8,24.92,25.41,38.2,1.49,2.6.94,5.63,1.84,8.49,3.73,11.9,7.46,23.8,11.18,35.7,2.03,6.47.37,13.86-1.15,20.47-1.23,5.35-3.66,10.35-5.39,15.56-3.78,11.42-4.1,23.96-.92,35.56,1.42,5.16,2.24,10.59,3.92,15.67,4.33,13.12,5.62,27.01,6.88,40.77-16.5,17.13-33.51,34.62-51.19,50.53-4.77,4.29-10.02,9.63-9.21,15.99.73,5.78,2.58,11.42,4.53,16.92.65,1.84,1.39,3.71,2.72,5.13,1.27,1.36,2.99,2.21,4.66,3.03,7.31,3.57,14.62,7.14,21.93,10.72,13.21,6.45,22.8,18.06,35.64,25.22,5.17,2.88,10.71,5.77,13.86,10.78-.51,6.58,2.04,12.36,3.79,18.73,1.93,7.03,3.07,14.26,4.2,21.46.9,5.76,1.81,11.52,2.71,17.28,27.5,19.23,55.77,37.88,83.27,57.11,19.19,13.41,38.76,26.3,57.16,40.78-1.35,12.18,5.55,23.17,7.95,35.18,1.96,9.81,1.25,20.22,4.98,29.5,1.04,2.58.34,6.7.89,9.42,2.54,12.79,5.08,25.57,7.63,38.36,1.86,9.36,4.44,18.85,6.44,28.19.71,3.3,1.05,6.67,1.4,10.04.36,3.55.72,7.19-.17,10.64-.83,3.22-2.69,6.05-4.52,8.82-3.04,4.6-6.12,9.25-10.17,12.99-.5,6.15-5.87,9.58-8.76,15.04-3.73,7.05-2.68,15.58-1.39,23.45,1.77,10.79,3.82,21.54,6.01,32.25,3.11,15.2,10.01,29.2,9.78,44.72-.06,4.04,1.5,7.67,2.5,11.59,2.43,9.56,3.44,19.48,3,29.33-.11,2.48-.44,5.23-2.31,6.88-1.37,1.21-3.28,1.55-5.09,1.84-6.78,1.09-13.57,2.18-20.35,3.27-6.12.98-12.18,3.79-18.16,5.42-5.49,1.5-11,2.88-16.52,4.26-12.56,3.15-25.12,6.3-37.68,9.44-7,1.75-14.08,3.52-21.29,3.61-7.21.09-14.69-1.66-20.26-6.24-4.61-.3-8.98-.83-13.29-2.52-17.31-6.77-34.62-13.53-51.92-20.3-3.82.4-7.22,2.48-10.35,4.71-12.03,8.53-24.07,17.05-36.1,25.58-16.88,11.96-36.24,21.26-52.53,34.01-18.09,18.09-45.82,28.02-66.78,42.4-24.35,16.7-48.69,33.41-73.04,50.11-5.48,3.76-13.31,12.56-18.56,6.76-3.85-4.25-4.13-20.68-5.33-26.51-3.67-17.8-7.45-35.58-10.82-53.45-7.64-40.46-11.95-81.47-16.25-122.43-6.5-61.92-13.02-124.16-9.64-186.33,1.8-33.16,6.42-66.26,5.2-99.44-4.32-117.56-.75-236.17-.41-353.8.14-50.83-1.71-101.65-1.72-152.48,0-7.57.21-15.77,4.91-21.7,3.37-4.24,8.51-6.6,13.37-8.99,19.15-9.41,36.85-21.57,55.9-31.18,19.05-9.61,40.15-16.73,61.41-14.93,14.04,1.19,27.44,6.19,40.63,11.15,14.62,5.49,29.25,10.99,43.39,17.62,7.99,3.75,16.19,8.19,20.9,15.66,6.49-1.65,10.49.24,14.65,5.49Z" fill="none" stroke="#000" stroke-miterlimit="10"/>
  </g>
  <g id="Layer_17" data-name="Layer 17">
    <polygon id="bakirkoy" class="neighborhood" data-name="Bakırköy" points="1329.75 2006.83 1086.01 1885.98 1113.35 1863.43 1221.33 1824.47 1257.55 1738.36 1272.58 1737 1359.01 1780.79 1448.51 1767.02 1613.73 1703.92 1637.83 1671.21 1703.8 1675.8 1701.51 1787.67 1710.69 1798 1686.02 1855.94 1630.37 1867.99 1605.7 1848.49 1547.76 1862.83 1520.79 1928.8 1498.99 1940.28 1486.95 1966.67 1329.75 2006.83" fill="none" stroke="#000" stroke-miterlimit="10"/>
  </g>
  <g id="Layer_18" data-name="Layer 18">
    <polygon id="basaksehir" class="neighborhood" data-name="Başakşehir" points="1320.41 1494.56 1143.15 1524.47 1014.63 1559.92 917.14 1492.89 918.25 1295.14 1168.63 1136.72 1257.81 1164.97 1375.24 1137.27 1502.65 1225.9 1502.1 1249.72 1476.61 1264.67 1419.56 1376.01 1421.78 1430.85 1328.71 1457.44 1326.5 1492.34 1320.41 1494.56" fill="none" stroke="#000" stroke-miterlimit="10"/>
  </g>
  <g id="Layer_19" data-name="Layer 19">
    <polygon id="eyupsultan" class="neighborhood" data-name="Eyüpsultan" points="1179.5 491.54 1118.51 556.48 1121.9 581.32 1201.31 633 1212.01 690.47 1352.44 788.36 1382.22 947.24 1355.68 992.98 1381.09 1138.66 1391.25 1144.31 1495.72 1024.03 1503.62 1020.08 1788.22 1096.88 1791.61 1101.39 1799.52 1300.73 1805.73 1303.55 1888.17 1289.43 1893.67 1304.02 1890.18 1389.77 1808.42 1417.19 1806.98 1503.67 1860.65 1526.67 1978.43 1414.2 1981.92 1403.73 1962.97 1373.81 1979.42 1340.91 1997.87 1328.94 1995.8 1276.22 2022.07 1229.05 2022.07 1163.36 2006.84 1120.05 2008.34 1107.24 1989.4 1022.34 2058.69 919.14 2034.76 874.77 1978.93 870.28 1984.91 785.03 1920.6 760.6 1915.61 749.13 1944.03 664.88 1870.24 607.05 1866.25 591.09 1949.51 455.99 1703.09 429.14 1500.15 437.18 1385.87 447.34 1172.78 448.83 1179.5 491.54" fill="none" stroke="#000" stroke-miterlimit="10"/>
  </g>
  <g id="Layer_20" data-name="Layer 20">
    <polygon id="kagithane" class="neighborhood" data-name="Kağıthane" points="1995.8 1276.22 2022.07 1229.05 2022.07 1163.36 2007.15 1117.39 2008.34 1107.24 2078.8 1089.92 2132.54 1096.49 2217.92 1097.09 2225.09 1139.48 2188.66 1156.8 2167.77 1211.13 2081.19 1236.21 2050.14 1283.38 1995.21 1280.99 1995.8 1276.22" fill="none" stroke="#000" stroke-miterlimit="10"/>
  </g>
  <g id="Layer_21" data-name="Layer 21">
    <polygon id="beyoglu" class="neighborhood" data-name="Beyoğlu" points="1995.21 1280.99 1995.8 1329.95 1987.44 1337.72 1988.04 1347.27 2122.98 1416.53 2172.54 1461.32 2255.54 1392.65 2178.51 1343.69 2052.53 1282.19 1995.21 1280.99" fill="none" stroke="#000" stroke-miterlimit="10"/>
  </g>
  <g id="Layer_22" data-name="Layer 22">
    <polygon id="zeytinburnu" class="neighborhood" data-name="Zeytinburnu" points="1701.17 1793.49 1807.74 1772.02 1841.48 1716.82 1836.88 1551.2 1860.65 1526.67 1806.98 1503.67 1745.64 1525.13 1743.34 1574.97 1727.24 1588.77 1706.81 1676.18 1701.17 1793.49" fill="none" stroke="#000" stroke-miterlimit="10"/>
  </g>
  <g id="Layer_23" data-name="Layer 23">
    <polygon id="gungoren" class="neighborhood" data-name="Güngören" points="1676.22 1532.73 1679.73 1573.36 1684.74 1575.87 1724.87 1584.89 1706.81 1676.18 1637.6 1674.67 1632.58 1649.59 1545.55 1630.55 1549.91 1570.62 1627.06 1536.74 1662.17 1530.22 1676.22 1532.73" fill="none" stroke="#000" stroke-miterlimit="10"/>
  </g>
  <g id="Layer_24" data-name="Layer 24">
    <polygon id="bahcelievler" class="neighborhood" data-name="Bahçelievler" points="1622.68 1693.32 1637.83 1671.21 1632.58 1649.59 1519.4 1624.55 1328.74 1616.93 1272.58 1737 1359.01 1780.79 1448.51 1767.02 1613.73 1703.92 1622.68 1693.32" fill="none" stroke="#000" stroke-miterlimit="10"/>
  </g>
</svg>
